<svg id="Layer_1" data-name="Layer 1" xmlns="http://www.w3.org/2000/svg" xmlns:xlink="http://www.w3.org/1999/xlink" viewBox="0 0 111.16 112.39"><defs><style>.cls-1{fill:url(#linear-gradient);}.cls-2{fill:url(#linear-gradient-2);}</style><linearGradient id="linear-gradient" x1="821.55" y1="210.46" x2="930.56" y2="116.67" gradientTransform="matrix(0.56, 0, 0, -0.57, -8.96, 577.87)" gradientUnits="userSpaceOnUse"><stop offset="0" stop-color="#5a9fd4"/><stop offset="1" stop-color="#306998"/></linearGradient><linearGradient id="linear-gradient-2" x1="972.71" y1="59.9" x2="933.78" y2="114.98" gradientTransform="matrix(0.56, 0, 0, -0.57, -8.96, 577.87)" gradientUnits="userSpaceOnUse"><stop offset="0" stop-color="#ffd43b"/><stop offset="1" stop-color="#ffe873"/></linearGradient></defs><path id="path1948" class="cls-1" d="M510.84,455.13A76.71,76.71,0,0,0,498,456.22c-11.34,2-13.4,6.2-13.4,13.94v10.22h26.81v3.41H474.56c-7.8,0-14.62,4.68-16.75,13.59-2.47,10.21-2.58,16.59,0,27.25,1.9,7.94,6.45,13.59,14.25,13.59h9.21V526A17,17,0,0,1,498,509.32h26.79a13.51,13.51,0,0,0,13.4-13.63V470.16c0-7.26-6.13-12.72-13.4-13.94A84.56,84.56,0,0,0,510.84,455.13Zm-14.5,8.22a5.11,5.11,0,1,1-5,5.12A5.09,5.09,0,0,1,496.34,463.35Z" transform="translate(-455.92 -455.13)"/><path id="path1950" class="cls-2" d="M541.56,483.79v11.9c0,9.23-7.83,17-16.75,17H498a13.68,13.68,0,0,0-13.4,13.63v25.53c0,7.27,6.32,11.54,13.4,13.62a44.83,44.83,0,0,0,26.79,0c6.75-2,13.4-5.88,13.4-13.62V541.63H511.43v-3.41h40.19c7.79,0,10.69-5.43,13.4-13.59,2.8-8.4,2.68-16.48,0-27.25-1.92-7.76-5.6-13.59-13.4-13.59Zm-15.07,64.65a5.11,5.11,0,1,1-5,5.1A5.06,5.06,0,0,1,526.49,548.44Z" transform="translate(-455.92 -455.13)"/></svg>